<?xml version="1.0" encoding="utf-8"?>
<!-- Svg Vector Icons : http://www.onlinewebfonts.com/icon -->
<!DOCTYPE svg PUBLIC "-//W3C//DTD SVG 1.1//EN" "http://www.w3.org/Graphics/SVG/1.1/DTD/svg11.dtd">
<svg version="1.1" xmlns="http://www.w3.org/2000/svg" xmlns:xlink="http://www.w3.org/1999/xlink" x="0px" y="0px" viewBox="0 0 1000 1000" enable-background="new 0 0 1000 1000" xml:space="preserve">
<metadata> Svg Vector Icons : http://www.onlinewebfonts.com/icon </metadata>
<g><g transform="translate(0.000000,511.000000) scale(0.100000,-0.100000)"><path d="M3898.4,3853.7c-191.7-21.1-406.4-70.9-600-138c-715-253-1314.9-849.1-1562.2-1552.6l-51.8-147.6l-138-40.2c-302.9-92-590.4-268.3-837.7-515.6C187.4,938.2-13.8,229,162.5-463c164.8-649.8,667.1-1207.6,1288.1-1433.8l116.9-42.2l13.4-122.7c47.9-473.4,352.7-904.7,787.8-1121.3c208.9-103.5,389.1-138,642.1-126.5c318.2,15.3,592.3,120.8,841.5,322c63.3,51.8,118.8,93.9,122.7,93.9c1.9,0,74.8-69,159.1-151.4c251.1-247.2,596.1-448.5,908.6-529c214.7-55.6,316.3-69,548.2-69c341.2,0,573.1,55.6,879.8,207c377.6,187.9,665.1,456.2,876,818.5c44.1,74.8,82.4,139.9,84.3,141.8c1.9,3.8,99.7-3.8,214.7-17.3c605.7-69,1240.2,159.1,1683,603.8c182.1,184,287.5,335.4,402.5,575c134.2,283.7,170.6,460,168.7,835.8c-1.9,277.9-7.7,339.3-51.8,502.2c-147.6,553.9-509.9,1027.4-992.9,1297.7c-103.5,57.5-109.3,65.2-120.8,151.4c-19.2,136.1-111.2,389.1-205.1,554c-159.1,279.8-486.9,577-774.4,705.4c-231.9,101.6-396.8,134.2-699.6,132.3c-304.8,0-435.1-23-686.2-126.5c-76.7-32.6-141.8-55.6-145.7-51.8c-1.9,3.8-38.3,55.6-78.6,113.1c-226.2,322-567.4,613.4-939.2,801.2C4824.2,3790.5,4285.6,3895.9,3898.4,3853.7z M4435.1,3518.3c203.2-30.7,469.6-111.2,630.6-193.6c329.7-164.8,642.1-440.9,837.6-739.9c63.3-97.7,134.2-201.3,155.3-230c61.3-78.6,143.8-70.9,302.9,23c70.9,44.1,197.4,101.6,281.8,128.4c132.3,44.1,187.8,51.7,392.9,51.7c277.9,1.9,421.7-32.6,680.5-166.7c184-95.8,448.5-345,544.4-515.6c78.6-139.9,153.3-360.4,166.7-494.5c21.1-199.4,34.5-222.4,174.4-287.5C9250.1,786.8,9633.5,163.8,9599-526.2c-38.3-791.6-563.6-1441.4-1311.1-1621.6c-237.7-57.5-548.2-57.5-784,1.9c-153.3,38.3-180.2,40.2-228.1,17.2c-30.7-15.3-61.3-40.2-69-55.6c-7.7-15.3-49.9-101.6-92-191.7c-161-337.4-419.8-600-759.1-768.6c-235.8-117-437-168.7-699.6-184c-592.3-30.7-1173.1,254.9-1487.5,732.2c-126.5,193.6-222.4,193.6-373.8-1.9c-253-320.1-653.6-467.7-1037-383.3c-205.1,46-400.6,145.7-532.9,272.2c-224.3,212.8-302.9,392.9-323.9,739.9c-15.3,268.3-26.8,285.6-208.9,331.6c-157.2,38.3-400.6,151.4-552,253c-145.7,99.6-381.4,346.9-471.5,496.4C570.8-729.4,490.3-518.6,452-326.9c-46,218.5-30.7,621,28.8,826.2c170.6,596.1,626.8,1035.1,1244,1196.1c97.8,24.9,189.8,57.5,205.1,72.9c15.3,15.3,44.1,86.3,63.3,159.1c107.3,381.4,306.7,715,598,998.7c182.1,174.4,322,274.1,544.4,385.3C3536.1,3512.5,3990.4,3585.4,4435.1,3518.3z"/><path d="M2165.6,884.6c-264.5-84.3-483-308.6-561.6-575c-105.4-362.3,90.1-759,465.8-939.2c134.2-63.2,159.1-69,320.1-69s182.1,3.8,320.1,72.8c191.7,93.9,316.3,218.5,410.2,410.2c69,138,72.8,159.1,72.8,320.1c0,161-5.7,185.9-69,320.1C2941.9,806,2533.6,1001.5,2165.6,884.6z M2558.5,577.9c32.6-13.4,30.7-17.2-15.3-46c-26.8-19.2-72.8-67.1-99.7-109.3c-155.3-233.9,115-552,381.4-450.4c51.8,21.1,40.3-46-23-147.6c-34.5-53.7-92-109.3-149.5-143.8c-82.4-47.9-109.3-53.7-266.4-53.7c-159.1,0-180.2,3.8-266.4,57.5c-141.8,86.3-208.9,207-218.5,387.2c-15.3,325.9,168.7,525.2,486.9,521.4C2462.7,593.2,2537.4,585.5,2558.5,577.9z"/><path d="M7277.7,901.8c-214.7-55.6-454.3-256.9-561.6-473.5c-47.9-101.6-53.7-130.3-53.7-312.4c0-195.5,1.9-208.9,72.8-348.9c159.1-325.9,515.6-521.4,841.5-460c264.5,49.8,485,216.6,603.8,460c70.9,139.9,72.8,153.3,72.8,348.9c0,185.9-3.8,210.8-57.5,316.3C8054,714,7785.7,899.9,7500.1,913.3C7419.6,917.1,7319.9,911.4,7277.7,901.8z M7651.5,566.4c320.1-113.1,406.4-571.2,155.3-814.6c-101.6-97.8-197.4-134.2-348.9-134.2c-143.8,0-239.6,34.5-333.5,118.8c-72.8,61.3-162.9,216.6-139.9,237.7c3.8,3.8,34.5-1.9,69-13.4c128.4-46,312.4,61.3,375.7,216.6c44.1,115,24.9,191.7-78.6,302.9c-72.9,78.6-80.5,93.9-51.8,101.6C7377.4,602.8,7572.9,593.2,7651.5,566.4z"/><path d="M3701-56.6v-325.8h162.9h162.9v86.3v86.3h900.9h900.9v-86.3v-86.3H5980h149.5l13.4,88.2c15.3,113.1,15.3,463.9,0,521.4c-11.5,38.3-23,42.2-162.9,42.2h-151.4V183V96.8h-900.9h-900.9V183v86.3h-162.9H3701V-56.6z"/></g></g>
</svg>